<svg width="23" height="21" viewBox="-0.946 -0.676 24.937 22.306" fill="none" xmlns="http://www.w3.org/2000/svg">
  <defs></defs>
  <path d="M 11.522 20.586 C 11.413 20.586 11.303 20.559 11.207 20.505 C 9.246 19.356 7.406 18.013 5.714 16.496 C 2.003 13.156 0.122 9.828 0.122 6.606 C 0.122 5.272 0.55 3.972 1.344 2.9 C 2.137 1.826 3.252 1.036 4.528 0.644 C 5.804 0.251 7.171 0.279 8.429 0.721 C 9.688 1.162 10.772 1.997 11.522 3.1 C 12.272 1.997 13.356 1.162 14.615 0.721 C 15.873 0.279 17.24 0.251 18.516 0.644 C 19.791 1.036 20.907 1.826 21.7 2.9 C 22.494 3.972 22.922 5.272 22.922 6.606 C 22.922 9.828 21.041 13.156 17.33 16.496 C 15.638 18.013 13.798 19.356 11.837 20.505 C 11.741 20.559 11.631 20.586 11.522 20.586 Z" style="stroke-miterlimit: 50; fill-rule: nonzero; stroke: rgb(252, 196, 54); paint-order: stroke; stroke-width: 2px;"></path>
</svg>